<svg width="300" height="180" xmlns="http://www.w3.org/2000/svg" style="background-color: rgba(32, 32, 32, 1);">
  <!-- Рамка -->
  <rect width="300" height="180" fill="none" stroke="rgba(222, 222, 222, 0.8)" stroke-width="2" />

  <!-- Асимметричные горы (нитевидный стиль) -->
  <path d="M0,180 L50,140 L80,170 L120,130 L150,160 L180,120 L210,150 L250,110 L300,180" 
        stroke="rgba(222, 222, 222, 1)" stroke-width="2" fill="none" />
  <path d="M20,160 L60,120 L90,150 L110,110 L140,140 L170,100 L200,130 L230,90 L270,120" 
        stroke="rgba(222, 222, 222, 0.8)" stroke-width="1.5" fill="none" />
  <path d="M40,150 L70,110 L100,140 L130,100 L160,130 L190,90 L220,120 L260,80" 
        stroke="rgba(222, 222, 222, 0.6)" stroke-width="1" fill="none" />

  <!-- Солнце в нитевидном стиле (неидеальный круг) -->
  <path d="M150,60 m-30,0 a30,30 0 1,1 60,0 a30,30 0 1,1 -60,0" 
        stroke="rgba(222, 222, 222, 1)" stroke-width="2" fill="rgba(222, 222, 222, 0.5)" />
  <!-- Добавляем "нити" вокруг солнца -->
  <line x1="150" y1="50" x2="150" y2="70" stroke="rgba(222, 222, 222, 0.8)" stroke-width="1" />
  <line x1="140" y1="60" x2="160" y2="60" stroke="rgba(222, 222, 222, 0.8)" stroke-width="1" />
  <line x1="155" y1="55" x2="145" y2="65" stroke="rgba(222, 222, 222, 0.8)" stroke-width="1" />
  <line x1="155" y1="65" x2="145" y2="55" stroke="rgba(222, 222, 222, 0.8)" stroke-width="1" />
</svg>
